<!-- icon666.com - MILLIONS vector ICONS FREE --><svg id="Layer_1" viewBox="0 0 512 512" xmlns="http://www.w3.org/2000/svg"><g><g><path d="m392 16h-272c-22.056 0-40 17.944-40 40v176c0 4.418 3.582 8 8 8h32c2.122 0 4.157-.843 5.657-2.343l29.657-29.657h236.686c22.056 0 40-17.944 40-40v-112c0-22.056-17.944-40-40-40z" fill="#f06423" style="fill: rgb(20, 36, 25);"></path><path d="m360 16h-240c-22.056 0-40 17.944-40 40v176c0 3.236 1.949 6.153 4.938 7.391.99.41 2.029.609 3.06.609 2.082 0 4.128-.813 5.659-2.343l29.657-29.657h236.686c22.056 0 40-17.944 40-40v-112c0-22.056-17.944-40-40-40z" fill="#faa019" style="fill: rgb(79, 222, 134);"></path></g><g><g><path d="m144 496h64v-48c0-17.673-14.327-32-32-32-17.673 0-32 14.327-32 32z" fill="#463c4b"></path></g><g><path d="m200 400h112c39.764 0 72-32.235 72-72 0-39.764-32.235-72-72-72h-112c-39.764 0-72 32.235-72 72 0 39.765 32.235 72 72 72z" fill="#5faa46"></path></g><g><path d="m200 400h48c39.764 0 72-32.235 72-72 0-39.764-32.235-72-72-72h-48c-39.764 0-72 32.235-72 72 0 39.765 32.235 72 72 72z" fill="#91c83c"></path></g><g><path d="m200 272 8 16h32l8-16c30.928 0 56 25.072 56 56 0 30.928-25.072 56-56 56h-48c-30.928 0-56-25.072-56-56 0-30.928 25.072-56 56-56z" fill="#463c4b"></path></g><g><circle cx="192" cy="328" fill="#5ad7ff" r="24"></circle></g><g><circle cx="256" cy="328" fill="#5ad7ff" r="24"></circle></g><g><path d="m208 400h96v16h-96z" fill="#463c4b" transform="matrix(-1 0 0 -1 512 816)"></path></g><g><path d="m160 496h192v-64c0-8.837-7.163-16-16-16h-160c-8.837 0-16 7.163-16 16z" fill="#91c83c"></path></g><g><path d="m272 496h80v-64c0-8.837-7.163-16-16-16h-48c-8.837 0-16 7.163-16 16z" fill="#5faa46"></path></g><g><path d="m368 360h16c17.673 0 32-14.327 32-32 0-17.673-14.327-32-32-32h-16c-17.673 0-32 14.327-32 32 0 17.673 14.327 32 32 32z" fill="#463c4b"></path></g><g><circle cx="384" cy="328" fill="#555a6e" r="32"></circle></g><g><path d="m376 224c4.418 0 8 3.582 8 8v64h-16v-64c0-4.418 3.582-8 8-8z" fill="#463c4b"></path></g><g><path d="m248 224c4.418 0 8 3.582 8 8v24h-16v-24c0-4.418 3.582-8 8-8z" fill="#463c4b"></path></g><g><path d="m304 496h64v-48c0-17.673-14.327-32-32-32-17.673 0-32 14.327-32 32z" fill="#463c4b"></path></g></g><g><circle cx="144" cy="112" fill="#f06423" r="16" style="fill: rgb(20, 36, 25);"></circle></g><g><circle cx="208" cy="112" fill="#f06423" r="16" style="fill: rgb(20, 36, 25);"></circle></g><g><circle cx="272" cy="112" fill="#f06423" r="16" style="fill: rgb(20, 36, 25);"></circle></g><g><circle cx="336" cy="112" fill="#f06423" r="16" style="fill: rgb(20, 36, 25);"></circle></g></g></svg>