<!-- icon666.com - MILLIONS vector ICONS FREE --><svg viewBox="0 0 512 512" xmlns="http://www.w3.org/2000/svg"><g id="Flat"><rect fill="#348ed8" height="64" rx="8" width="96" x="208" y="24" style="fill: rgb(59, 232, 93);"></rect><path d="m280 120h-48l8-32h32z" fill="#d5d5d3"></path><path d="m224 112h64v16h-64z" fill="#dfdfdd"></path><path d="m276 104h-40l4-16h32z" fill="#cececc"></path><g fill="#4db6e4"><path d="m248 144h16v40h-16z" fill="#4db6e4" style="fill: rgb(35, 39, 41);"></path><path d="m248 328h16v40h-16z" fill="#4db6e4" style="fill: rgb(35, 39, 41);"></path><path d="m156 174.388h16v51.225h-16z" transform="matrix(.625 -.781 .781 .625 -94.624 203.123)" fill="#4db6e4" style="fill: rgb(35, 39, 41);"></path><path d="m139.156 320h57.689v16h-57.689z" transform="matrix(.832 -.555 .555 .832 -153.726 148.277)" fill="#4db6e4" style="fill: rgb(35, 39, 41);"></path><path d="m322.388 192h51.225v16h-51.225z" transform="matrix(.781 -.625 .625 .781 -48.682 261.216)" fill="#4db6e4" style="fill: rgb(35, 39, 41);"></path><path d="m336 299.156h16v57.689h-16z" transform="matrix(.555 -.832 .832 .555 -119.729 432.284)" fill="#4db6e4" style="fill: rgb(35, 39, 41);"></path><path d="m64 240h16v48h-16z" fill="#4db6e4" style="fill: rgb(35, 39, 41);"></path><path d="m114.264 68h75.472v16.001h-75.472z" transform="matrix(.848 -.53 .53 .848 -17.175 92.114)" fill="#4db6e4" style="fill: rgb(35, 39, 41);"></path><path d="m144 414.264h16.001v75.472h-16.001z" transform="matrix(.53 -.848 .848 .53 -311.855 341.336)" fill="#4db6e4" style="fill: rgb(35, 39, 41);"></path><path d="m352 38.264h16.001v75.472h-16.001z" transform="matrix(.53 -.848 .848 .53 104.753 340.999)" fill="#4db6e4" style="fill: rgb(35, 39, 41);"></path><path d="m322.264 444h75.472v16.001h-75.472z" transform="matrix(.848 -.53 .53 .848 -184.841 259.511)" fill="#4db6e4" style="fill: rgb(35, 39, 41);"></path><path d="m432 240h16v48h-16z" fill="#4db6e4" style="fill: rgb(35, 39, 41);"></path></g><rect fill="#348ed8" height="64" rx="8" width="96" x="392" y="120" style="fill: rgb(59, 232, 93);"></rect><path d="m464 216h-48l8-32h32z" fill="#d5d5d3"></path><path d="m408 208h64v16h-64z" fill="#dfdfdd"></path><path d="m460 200h-40l4-16h32z" fill="#cececc"></path><rect fill="#348ed8" height="64" rx="8" width="96" x="24" y="120" style="fill: rgb(59, 232, 93);"></rect><path d="m96 216h-48l8-32h32z" fill="#d5d5d3"></path><path d="m40 208h64v16h-64z" fill="#dfdfdd"></path><path d="m92 200h-40l4-16h32z" fill="#cececc"></path><rect fill="#348ed8" height="64" rx="8" width="96" x="392" y="312" style="fill: rgb(59, 232, 93);"></rect><path d="m464 408h-48l8-32h32z" fill="#d5d5d3"></path><path d="m408 400h64v16h-64z" fill="#dfdfdd"></path><path d="m460 392h-40l4-16h32z" fill="#cececc"></path><rect fill="#348ed8" height="64" rx="8" width="96" x="24" y="312" style="fill: rgb(59, 232, 93);"></rect><path d="m96 408h-48l8-32h32z" fill="#d5d5d3"></path><path d="m40 400h64v16h-64z" fill="#dfdfdd"></path><path d="m92 392h-40l4-16h32z" fill="#cececc"></path><rect fill="#348ed8" height="64" rx="8" width="96" x="208" y="392" style="fill: rgb(59, 232, 93);"></rect><path d="m280 488h-48l8-32h32z" fill="#d5d5d3"></path><path d="m224 480h64v16h-64z" fill="#dfdfdd"></path><path d="m276 472h-40l4-16h32z" fill="#cececc"></path><rect fill="#348ed8" height="64" rx="8" width="96" x="208" y="208" style="fill: rgb(59, 232, 93);"></rect><path d="m280 304h-48l8-32h32z" fill="#d5d5d3"></path><path d="m224 296h64v16h-64z" fill="#dfdfdd"></path><path d="m276 288h-40l4-16h32z" fill="#cececc"></path></g></svg>